<svg width="169" height="55" viewBox="0 0 169 55" fill="none" xmlns="http://www.w3.org/2000/svg">
<g clip-path="url(#clip0_123_11312)">
<path d="M44.0871 38.5034L48.7673 32.0439H59.4556L52.4763 21.8294L40.7191 38.5034H31.5462L47.6092 15.7834C48.1615 15.0294 48.8316 14.3699 49.5938 13.8304C50.4876 13.2265 51.55 12.924 52.6268 12.9669C53.6665 12.9286 54.6929 13.2104 55.5681 13.7744C56.3546 14.3132 57.034 14.9946 57.5712 15.7834L73.2219 38.5034H44.0871Z" fill="#FFE86B"/>
<path d="M34.158 46.8285C33.4715 46.7723 32.7849 46.9347 32.1958 47.2925C31.9939 47.4492 31.8331 47.6528 31.7272 47.8857C31.6214 48.1186 31.5736 48.374 31.5881 48.6295C31.5712 48.9645 31.6583 49.2963 31.8373 49.5795C32.0148 49.8243 32.2532 50.0181 32.5288 50.1415C32.8576 50.2929 33.1942 50.4264 33.5373 50.5415C33.9611 50.6799 34.3089 50.7999 34.5807 50.9015C34.8043 50.9751 35.0108 51.0931 35.1879 51.2485C35.2585 51.3242 35.3126 51.4138 35.347 51.5116C35.3813 51.6093 35.395 51.7131 35.3873 51.8165C35.4021 51.9572 35.3745 52.0992 35.3081 52.224C35.2416 52.3488 35.1393 52.4507 35.0144 52.5165C34.6182 52.6671 34.1945 52.731 33.7716 52.704C33.4267 52.7035 33.0823 52.6758 32.7417 52.621C32.4056 52.5678 32.0751 52.4841 31.7541 52.371V53.371C32.0662 53.4759 32.3878 53.5501 32.7142 53.5925C33.1147 53.6493 33.5187 53.6772 33.9232 53.676C34.5934 53.7159 35.2607 53.5596 35.844 53.226C36.0705 53.0692 36.2522 52.8555 36.3708 52.6064C36.4895 52.3573 36.5411 52.0813 36.5205 51.806C36.5352 51.4774 36.4587 51.1511 36.2996 50.8635C36.1278 50.6017 35.889 50.3911 35.6082 50.2535C35.2138 50.0551 34.8023 49.8927 34.3788 49.7685C33.992 49.6395 33.6762 49.5312 33.4316 49.4435C33.2296 49.3809 33.045 49.2717 32.8927 49.1245C32.7722 48.9846 32.7104 48.8032 32.7202 48.6185C32.7086 48.4848 32.739 48.3509 32.807 48.2353C32.875 48.1198 32.9773 48.0284 33.0996 47.974C33.4967 47.8362 33.9169 47.7774 34.3364 47.801C34.9056 47.8073 35.47 47.9055 36.008 48.092V47.0945C35.732 47.012 35.4504 46.9495 35.1655 46.9075C34.8318 46.8561 34.4946 46.8307 34.157 46.8315" fill="#999999"/>
<path d="M47.3245 46.9666H46.1914V51.9276C45.9265 52.1906 45.6119 52.398 45.2661 52.5375C44.902 52.6858 44.5124 52.761 44.1195 52.759C43.6639 52.7973 43.2112 52.6582 42.8552 52.3705C42.7081 52.2087 42.596 52.0182 42.5259 51.8108C42.4558 51.6034 42.4293 51.3837 42.4479 51.1655V46.9656H41.3143V51.123C41.2649 51.8097 41.4789 52.4894 41.9125 53.0231C42.1458 53.2513 42.4247 53.4273 42.7308 53.5393C43.0369 53.6514 43.3633 53.6969 43.6883 53.673C44.1738 53.6781 44.6561 53.5933 45.111 53.423C45.516 53.2725 45.8939 53.0573 46.2302 52.7856L46.2995 53.5356H47.322L47.3245 46.9666Z" fill="#999999"/>
<path d="M55.6559 46.8286C54.7369 46.7799 53.8335 47.0818 53.1273 47.6736C52.795 48.01 52.539 48.4144 52.3768 48.8592C52.2146 49.3039 52.1501 49.7785 52.1876 50.2506C52.129 51.1694 52.4261 52.0755 53.0172 52.7801C53.3549 53.0993 53.7557 53.3439 54.1937 53.498C54.6317 53.652 55.0971 53.712 55.5596 53.6741C55.9272 53.6771 56.2943 53.6468 56.6564 53.5836C56.9717 53.5273 57.28 53.4366 57.5757 53.3131V52.3991C57.0229 52.6429 56.4247 52.7656 55.8209 52.7591C55.477 52.7927 55.13 52.757 54.8002 52.654C54.4704 52.5509 54.1645 52.3827 53.9005 52.1591C53.4689 51.6228 53.261 50.9397 53.3203 50.2531C53.2849 49.902 53.3259 49.5474 53.4405 49.2138C53.555 48.8801 53.7404 48.5754 53.9838 48.3206C54.5195 47.9064 55.1872 47.702 55.8622 47.7456C56.4486 47.7346 57.0298 47.8577 57.5617 48.1056V47.2056C57.2981 47.0775 57.0198 46.9821 56.7332 46.9216C56.3778 46.8559 56.0167 46.8259 55.6554 46.8321" fill="#999999"/>
<path d="M65.2445 46.8286C64.3254 46.78 63.4219 47.0819 62.7155 47.6736C62.3833 48.0101 62.1275 48.4145 61.9654 48.8593C61.8033 49.304 61.7388 49.7785 61.7762 50.2506C61.7174 51.17 62.0147 52.0767 62.6063 52.7816C62.9439 53.1009 63.3448 53.3456 63.7828 53.4996C64.2208 53.6536 64.6862 53.7135 65.1488 53.6755C65.5163 53.6784 65.8834 53.6482 66.2455 53.5851C66.5606 53.5286 66.8687 53.4379 67.1643 53.3146V52.4006C66.6117 52.6444 66.0136 52.7671 65.41 52.7606C65.066 52.7943 64.7188 52.7586 64.3888 52.6556C64.0588 52.5525 63.7527 52.3842 63.4887 52.1606C63.0572 51.6242 62.8495 50.9412 62.9089 50.2546C62.8736 49.9035 62.9145 49.549 63.029 49.2153C63.1435 48.8817 63.3287 48.577 63.5719 48.3221C64.108 47.9082 64.7757 47.7038 65.4509 47.7471C66.0373 47.7361 66.6184 47.8592 67.1503 48.1071V47.207C66.8865 47.079 66.6081 46.9836 66.3213 46.923C65.9662 46.8574 65.6055 46.8274 65.2445 46.8336" fill="#999999"/>
<path d="M74.5006 46.8286C74.0608 46.7899 73.618 46.8514 73.2052 47.0086C72.7925 47.1657 72.4205 47.4145 72.1172 47.7362C71.5803 48.4495 71.3135 49.3309 71.3644 50.2232C71.3644 51.3962 71.6545 52.2646 72.2348 52.8286C72.9656 53.4447 73.9083 53.7483 74.86 53.6742C75.233 53.6743 75.6052 53.6408 75.9723 53.5741C76.3014 53.517 76.6234 53.424 76.9324 53.2967V52.4101C76.3438 52.6462 75.7147 52.7639 75.0809 52.7566C74.5921 52.7718 74.1041 52.7087 73.6352 52.5697C73.2996 52.4668 73.011 52.2484 72.8201 51.9531C72.619 51.5922 72.5075 51.1879 72.495 50.7746H77.3447V49.5416C77.3527 49.0592 77.2462 48.5817 77.0341 48.1486C76.8263 47.7371 76.4983 47.3989 76.0939 47.1792C75.601 46.9265 75.0517 46.805 74.4986 46.8261M72.495 49.9571C72.4528 49.3708 72.6034 48.7869 72.9238 48.2946C73.2089 47.925 73.743 47.7401 74.526 47.7401C74.7749 47.7163 75.0259 47.7426 75.2645 47.8176C75.503 47.8926 75.7242 48.0146 75.9149 48.1767C76.2138 48.5178 76.3653 48.964 76.3362 49.4171V49.9571H72.495Z" fill="#999999"/>
<path d="M84.4347 46.8286C83.7483 46.7722 83.0616 46.9346 82.4725 47.2926C82.2705 47.4491 82.1096 47.6527 82.0036 47.8856C81.8976 48.1186 81.8498 48.374 81.8643 48.6296C81.8472 48.9645 81.9343 49.2965 82.1136 49.5795C82.291 49.8244 82.5295 50.0182 82.805 50.1416C83.1338 50.2929 83.4705 50.4265 83.8136 50.5416C84.237 50.6799 84.5846 50.7999 84.8565 50.9016C85.0802 50.9752 85.2869 51.0932 85.4642 51.2486C85.5347 51.3243 85.5889 51.4139 85.6232 51.5116C85.6575 51.6094 85.6713 51.7132 85.6636 51.8165C85.6784 51.9573 85.6507 52.0993 85.5841 52.2241C85.5175 52.3489 85.4151 52.4508 85.2902 52.5166C84.894 52.6672 84.4702 52.7311 84.0474 52.7041C83.7024 52.7036 83.358 52.6758 83.0174 52.6211C82.6815 52.5679 82.3511 52.4842 82.0303 52.3711V53.3711C82.3425 53.4759 82.664 53.5501 82.9905 53.5925C83.391 53.6494 83.795 53.6773 84.1994 53.676C84.8695 53.716 85.5367 53.5597 86.1197 53.2261C86.3464 53.0693 86.5282 52.8557 86.6469 52.6066C86.7657 52.3575 86.8174 52.0814 86.7967 51.806C86.8112 51.4775 86.7348 51.1513 86.5759 50.8635C86.404 50.602 86.1654 50.3914 85.8849 50.2536C85.4903 50.0552 85.0787 49.8929 84.6551 49.7686C84.2682 49.6396 83.9525 49.5312 83.7079 49.4436C83.5057 49.3813 83.321 49.2721 83.169 49.1246C83.0485 48.9846 82.9867 48.8032 82.9965 48.6185C82.9849 48.4849 83.0152 48.3509 83.0832 48.2354C83.1512 48.1198 83.2536 48.0285 83.3759 47.9741C83.773 47.8362 84.1931 47.7774 84.6127 47.801C85.1819 47.8073 85.7463 47.9055 86.2842 48.0921V47.0946C86.0082 47.012 85.7267 46.9495 85.4417 46.9075C85.108 46.8561 84.7708 46.8307 84.4332 46.8316" fill="#999999"/>
<path d="M93.6081 46.8285C92.9218 46.7723 92.2353 46.9346 91.6464 47.2925C91.4445 47.4492 91.2837 47.6528 91.1778 47.8857C91.072 48.1187 91.0242 48.374 91.0387 48.6296C91.0213 48.9645 91.1084 49.2965 91.2879 49.5795C91.4648 49.8245 91.7029 50.0184 91.9784 50.1415C92.3073 50.2925 92.644 50.4261 92.9869 50.5415C93.4107 50.6799 93.7585 50.7999 94.0303 50.9015C94.2541 50.9753 94.461 51.0933 94.6385 51.2485C94.7088 51.3244 94.7628 51.414 94.7971 51.5118C94.8314 51.6095 94.8453 51.7132 94.8379 51.8165C94.8526 51.9573 94.8249 52.0993 94.7584 52.224C94.6918 52.3488 94.5894 52.4507 94.4645 52.5165C94.0681 52.6671 93.6442 52.731 93.2212 52.704C92.8764 52.7035 92.5322 52.6758 92.1918 52.621C91.8555 52.5678 91.5248 52.4841 91.2037 52.371V53.371C91.516 53.4759 91.8377 53.55 92.1643 53.5925C92.5648 53.6494 92.9688 53.6773 93.3733 53.676C94.0433 53.7159 94.7105 53.5596 95.2936 53.2261C95.5203 53.0693 95.702 52.8557 95.8207 52.6065C95.9394 52.3574 95.9909 52.0814 95.9701 51.806C95.9848 51.4774 95.9083 51.1511 95.7492 50.8635C95.5777 50.6019 95.3392 50.3912 95.0588 50.2535C94.6644 50.0552 94.2529 49.8928 93.8294 49.7685C93.4426 49.6395 93.1268 49.5312 92.8822 49.4435C92.68 49.381 92.4952 49.2718 92.3428 49.1246C92.2225 48.9845 92.1609 48.8031 92.1708 48.6185C92.1591 48.4848 92.1895 48.3507 92.2576 48.2351C92.3257 48.1195 92.4282 48.0282 92.5507 47.974C92.9476 47.8362 93.3676 47.7774 93.787 47.801C94.3562 47.8072 94.9207 47.9055 95.4586 48.092V47.0945C95.1824 47.012 94.9007 46.9495 94.6156 46.9075C94.2819 46.856 93.9447 46.8306 93.6071 46.8315" fill="#999999"/>
<path d="M109.69 43.9735C109.412 43.9533 109.132 43.9915 108.87 44.0857C108.607 44.1799 108.366 44.328 108.164 44.5205C107.802 44.9295 107.616 45.4648 107.646 46.0105V46.9665H106.665V47.8665H107.646V53.534H108.779V47.8665H110.492L110.547 46.9665H108.779V46.0105C108.749 45.7004 108.838 45.3904 109.028 45.144C109.302 44.9402 109.643 44.8489 109.982 44.8885C110.292 44.8858 110.601 44.9365 110.894 45.0385V44.1795C110.716 44.1115 110.533 44.0605 110.346 44.027C110.129 43.9884 109.909 43.9699 109.689 43.9715" fill="#999999"/>
<path d="M117.828 46.8286C116.695 46.8286 115.866 47.1241 115.341 47.7151C114.774 48.4328 114.493 49.3366 114.554 50.2506C114.491 51.1658 114.769 52.0718 115.334 52.7931C115.854 53.3808 116.685 53.6745 117.827 53.6741C118.978 53.6741 119.811 53.3804 120.328 52.7931C120.888 52.0697 121.163 51.1646 121.1 50.2506C121.161 49.3368 120.881 48.4329 120.314 47.7151C119.788 47.1238 118.96 46.8283 117.827 46.8286M117.827 52.7036C117.524 52.7358 117.218 52.6996 116.931 52.5977C116.644 52.4958 116.383 52.3307 116.168 52.1146C115.801 51.5662 115.631 50.9089 115.685 50.2506C115.631 49.5915 115.804 48.9336 116.175 48.3871C116.39 48.1723 116.649 48.0079 116.935 47.906C117.221 47.8041 117.525 47.7673 117.827 47.7981C118.128 47.7675 118.433 47.8045 118.718 47.9064C119.003 48.0082 119.263 48.1725 119.477 48.3871C119.849 48.9335 120.022 49.5914 119.968 50.2506C120.022 50.9089 119.852 51.5662 119.485 52.1146C119.27 52.3306 119.009 52.4956 118.722 52.5975C118.435 52.6994 118.13 52.7356 117.827 52.7036Z" fill="#999999"/>
<path d="M129.503 46.8286C129.061 46.9171 128.629 47.0469 128.211 47.2161C127.813 47.3718 127.431 47.5667 127.071 47.7981L126.988 46.9666H125.966V53.5351H127.099V48.6436C127.316 48.4963 127.548 48.371 127.79 48.2696C128.074 48.1462 128.365 48.0374 128.66 47.9436C128.937 47.8534 129.219 47.7773 129.503 47.7156V46.8286Z" fill="#999999"/>
<path d="M141.468 44.1956H140.335V52.1221C140.313 52.3375 140.335 52.5552 140.401 52.7616C140.466 52.968 140.573 53.1588 140.715 53.3221C141.004 53.5707 141.378 53.6975 141.758 53.676C141.91 53.6759 142.063 53.6666 142.214 53.6481C142.365 53.6284 142.513 53.5911 142.656 53.537V52.6371C142.453 52.6925 142.244 52.7204 142.034 52.72C141.956 52.727 141.878 52.7173 141.804 52.6915C141.73 52.6656 141.663 52.6242 141.606 52.5701C141.495 52.4029 141.447 52.2021 141.468 52.0026V44.1956Z" fill="#999999"/>
<path d="M148.569 44.3894H147.312V45.4284H148.569V44.3894ZM148.556 46.9664H146.525L146.414 47.8665H147.422V53.5339H148.556V46.9664Z" fill="#999999"/>
<path d="M156.182 43.9736C155.904 43.9532 155.624 43.9913 155.361 44.0855C155.098 44.1797 154.858 44.3279 154.655 44.5206C154.294 44.9294 154.108 45.4648 154.137 46.0106V46.9666H153.156V47.8666H154.135V53.5341H155.269V47.8666H156.982L157.037 46.9666H155.269V46.0106C155.238 45.7004 155.328 45.3904 155.518 45.1441C155.792 44.9402 156.133 44.8488 156.472 44.8886C156.782 44.8859 157.09 44.9366 157.383 45.0386V44.1796C157.207 44.1117 157.024 44.0606 156.838 44.0271C156.621 43.9885 156.402 43.97 156.182 43.9716" fill="#999999"/>
<path d="M164.181 46.8286C163.741 46.7899 163.299 46.8514 162.886 47.0086C162.473 47.1657 162.101 47.4145 161.798 47.7362C161.261 48.4494 160.994 49.3308 161.045 50.2232C161.045 51.3962 161.335 52.2646 161.915 52.8286C162.646 53.4446 163.589 53.7482 164.541 53.6742C164.914 53.6743 165.286 53.6408 165.653 53.5741C165.982 53.5171 166.304 53.424 166.613 53.2967V52.4101C166.025 52.6462 165.395 52.7639 164.762 52.7566C164.273 52.7718 163.785 52.7087 163.316 52.5697C162.98 52.4665 162.692 52.2483 162.5 51.9531C162.3 51.592 162.188 51.1878 162.176 50.7746H167.026V49.5416C167.033 49.0592 166.927 48.5818 166.715 48.1486C166.507 47.7371 166.179 47.3989 165.775 47.1792C165.282 46.9265 164.732 46.8049 164.179 46.8261M162.176 49.9571C162.133 49.3708 162.284 48.7869 162.604 48.2946C162.89 47.925 163.424 47.7401 164.207 47.7401C164.456 47.7163 164.707 47.7427 164.945 47.8176C165.184 47.8926 165.405 48.0147 165.596 48.1767C165.744 48.3455 165.857 48.542 165.929 48.7548C166.002 48.9677 166.031 49.1927 166.017 49.4171V49.9571H162.176Z" fill="#999999"/>
<path d="M163.043 38.9171C162.54 38.9164 162.041 38.8339 161.564 38.6731C160.948 38.4249 160.393 38.0471 159.935 37.5651L144.584 23.7456V38.504H137.545V17.6616C137.528 16.932 137.649 16.2059 137.9 15.5211C138.104 14.9714 138.423 14.4721 138.836 14.0566C139.218 13.6842 139.678 13.4019 140.182 13.2305C140.695 13.055 141.232 12.9661 141.774 12.9675C142.264 12.9703 142.751 13.0527 143.215 13.2116C143.84 13.4634 144.407 13.8404 144.881 14.3196L160.233 28.1391V13.3815H167.312V34.1861C167.328 34.9158 167.207 35.6421 166.956 36.327C166.749 36.8806 166.43 37.3854 166.02 37.8101C165.637 38.1958 165.169 38.4853 164.653 38.655C164.134 38.8296 163.59 38.9185 163.043 38.918" fill="#FFE86B"/>
<path d="M125.45 29.2095C125.076 30.0482 124.438 30.7408 123.634 31.181C122.615 31.712 121.502 32.0373 120.358 32.1385C118.717 32.3164 117.066 32.3979 115.416 32.3826C113.765 32.3979 112.114 32.3164 110.473 32.1385C109.329 32.0373 108.216 31.712 107.197 31.181C106.393 30.7405 105.755 30.0481 105.381 29.2095C104.969 28.1649 104.778 27.0461 104.819 25.9236C104.778 24.8011 104.969 23.6822 105.381 22.6376C105.753 21.802 106.392 21.1147 107.197 20.6846C108.22 20.1662 109.332 19.8477 110.473 19.746C112.114 19.5678 113.765 19.4861 115.416 19.5015C117.067 19.4861 118.717 19.5678 120.358 19.746C121.5 19.8477 122.612 20.1662 123.634 20.6846C124.44 21.1146 125.079 21.8019 125.45 22.6376C125.862 23.6821 126.054 24.8011 126.012 25.9236C126.054 27.0461 125.862 28.165 125.45 29.2095ZM129.139 16.0845C126.082 14.0065 121.508 12.9675 115.417 12.9675C109.301 12.9675 104.721 14.0065 101.675 16.0845C98.6295 18.1625 97.1059 21.4423 97.1042 25.9236C97.1042 30.4299 98.6206 33.722 101.653 35.8C104.686 37.878 109.272 38.9171 115.413 38.9171C121.528 38.9171 126.108 37.878 129.154 35.8C132.2 33.722 133.723 30.4299 133.722 25.9236C133.722 21.4419 132.194 18.1622 129.136 16.0845" fill="#FFE86B"/>
<path d="M99.0908 13.3813L94.0737 19.9159H85.1247V38.5049H77.3736V19.9159H65.6169L70.6325 13.3813H99.0908Z" fill="#FFE86B"/>
<path d="M5.15968 53.5505H14.688L49.9741 3.63852H40.4453L5.15968 53.5505ZM10.8538 43.1975L10.8144 43.162L34.4221 9.76901H24.8938L5.79281 36.787C5.54687 36.325 5.31688 35.8538 5.10285 35.3735L19.4838 15.0315H9.95499L3.17505 24.6215C3.52259 18.8602 6.04595 13.4481 10.2316 9.48691C14.4172 5.52566 19.9505 3.31292 25.7054 3.29904C29.6464 3.29281 33.5191 4.33028 36.9322 6.30655L38.8326 3.61752C34.8633 1.2434 30.3264 -0.00678514 25.7049 2.76964e-05C22.3266 0.00219374 18.9818 0.671728 15.8616 1.97043C12.7413 3.26912 9.90665 5.17156 7.51946 7.56906C5.13228 9.96655 3.23933 12.8122 1.9487 15.9434C0.658063 19.0747 -0.00497013 22.4302 -0.00254703 25.8185C-0.0067948 29.5845 0.811837 33.3058 2.39575 36.7204C3.97967 40.135 6.29039 43.16 9.16533 45.5825L10.8538 43.1975Z" fill="#FFE86B"/>
</g>
<defs>
<clipPath id="clip0_123_11312">
<rect width="169" height="55" fill="white"/>
</clipPath>
</defs>
</svg>
